<svg width="25" height="22" viewBox="0 0 25 22" fill="none" xmlns="http://www.w3.org/2000/svg">
<path d="M9.7208 17.8179C10.0023 18.381 10.5654 18.7429 11.2491 18.7429H16.397V20.3517C16.397 20.9147 15.9546 21.3169 15.4318 21.3169H1.91846C1.3554 21.3169 0.953217 20.9147 0.953217 20.3517V1.69037C0.953217 1.16754 1.3554 0.725134 1.91846 0.725134H9.96211V6.19482C9.96211 6.75788 10.3643 7.16006 10.9273 7.16006H16.397V9.05032L11.2491 14.158V17.4559C11.0882 17.4559 10.9273 17.3755 10.8469 17.2146C10.3643 16.2494 8.99687 16.0081 8.19251 16.6516L7.62945 14.9624C7.50879 14.5602 7.14683 14.3189 6.74465 14.3189C6.30225 14.3189 5.94028 14.5602 5.81963 14.9624L5.0957 17.1744C5.01526 17.3353 4.85439 17.4559 4.6533 17.4559H4.17068C3.80871 17.4559 3.52719 17.7777 3.52719 18.0994C3.52719 18.4614 3.80871 18.7429 4.17068 18.7429H4.6533C5.41744 18.7429 6.06094 18.3005 6.30225 17.5766L6.74465 16.2896L7.38814 18.3407C7.58923 18.8636 8.31316 18.9038 8.59469 18.4212L8.87622 17.7777C8.99687 17.5766 9.19796 17.5364 9.31862 17.5364C9.39905 17.5364 9.60014 17.5766 9.7208 17.8179ZM16.397 5.63176V5.87307H11.2491V0.725134H11.4904C11.7317 0.725134 11.973 0.845789 12.1741 1.00666L16.1155 4.94805C16.2764 5.14914 16.397 5.39045 16.397 5.63176ZM12.5361 14.6809L19.0514 8.20573L21.7863 10.9406L15.2709 17.4559H12.5361V14.6809ZM23.7972 7.4818C24.1994 7.88399 24.1994 8.52748 23.7972 8.92966L22.7113 10.0156L19.9765 7.28071L21.0624 6.19482C21.4645 5.79264 22.108 5.79264 22.5102 6.19482L23.7972 7.4818Z" fill="white"/>
</svg>
